PathFileType	4	(X/Y/Z)	D:\Studies\Accel_Decel\Raw_data\p_01\static/static_01.trc
DataRate	CameraRate	NumFrames	NumMarkers	Units	OrigDataRate	OrigDataStartFrame	OrigNumFrames
200.000000	200.000000	4	63	mm	200.000000	616	987
Frame#	Time	C7			Sternum			MidT			L.ASIS			R.ASIS			L.PSIS			R.PSIS			L.Acromion			L.Elbow.Med			L.Elbow.Lat			L.Radius			L.Ulna			R.Acromion			R.Elbow.Med			R.Elbow.Lat			R.Ulna			R.Radius			L.Thigh.Post.Sup			L.Thigh.Ant.Sup			L.Thigh.Post.Inf			L.Thigh.Ant.Inf			L.Knee.Med			L.Knee.Lat			L.Shank.Post.Sup			L.Shank.Ant.Sup			L.Shank.Post.Inf			L.Shank.Ant.Inf			L.Ankle.Med			L.Ankle.Lat			L.Heel.Sup			L.Heel.Inf			L.Heel. Med			L.Heel.Lat			L.Midfoot.Med			L.Midfoot.Int			L.Midfoot.Lat			L.MTP1			L.MTP2			L.MTP5			L.Toe			R.Thigh.Post.Sup			R.Thigh.Ant.Sup			R.Thigh.Post.Inf			R.Thigh.Ant.Inf			R.Knee.Med			R.Knee.Lat			R.Shank.Post.Sup			R.Shank.Ant.Sup			R.Shank.Post.Inf			R.Shank.Ant.Inf			R.Ankle.Med			R.Ankle.Lat			R.Heel.Sup			R.Heel.Inf			R.Heel.Med			R.Heel.Lat			R.Midfoot.Med			R.Midfoot.Int			R.Midfoot.Lat			R.MTP1			R.MTP2			R.MTP5			R.Toe			
		X1	Y1	Z1	X2	Y2	Z2	X3	Y3	Z3	X4	Y4	Z4	X5	Y5	Z5	X6	Y6	Z6	X7	Y7	Z7	X8	Y8	Z8	X9	Y9	Z9	X10	Y10	Z10	X11	Y11	Z11	X12	Y12	Z12	X13	Y13	Z13	X14	Y14	Z14	X15	Y15	Z15	X16	Y16	Z16	X17	Y17	Z17	X18	Y18	Z18	X19	Y19	Z19	X20	Y20	Z20	X21	Y21	Z21	X22	Y22	Z22	X23	Y23	Z23	X24	Y24	Z24	X25	Y25	Z25	X26	Y26	Z26	X27	Y27	Z27	X28	Y28	Z28	X29	Y29	Z29	X30	Y30	Z30	X31	Y31	Z31	X32	Y32	Z32	X33	Y33	Z33	X34	Y34	Z34	X35	Y35	Z35	X36	Y36	Z36	X37	Y37	Z37	X38	Y38	Z38	X39	Y39	Z39	X40	Y40	Z40	X41	Y41	Z41	X42	Y42	Z42	X43	Y43	Z43	X44	Y44	Z44	X45	Y45	Z45	X46	Y46	Z46	X47	Y47	Z47	X48	Y48	Z48	X49	Y49	Z49	X50	Y50	Z50	X51	Y51	Z51	X52	Y52	Z52	X53	Y53	Z53	X54	Y54	Z54	X55	Y55	Z55	X56	Y56	Z56	X57	Y57	Z57	X58	Y58	Z58	X59	Y59	Z59	X60	Y60	Z60	X61	Y61	Z61	X62	Y62	Z62	X63	Y63	Z63	

617	3.08	148.1534881591797	1411.01953125	235.9157867431642	302.633514404297	1354.448608398438	232.1712036132814	105.1462783813477	1255.20361328125	236.476531982422	301.5735168457032	947.6928100585942	115.9362564086915	304.5180969238282	950.9396362304692	335.3827209472657	138.0636444091797	968.433715820313	186.9912109375001	136.8327026367188	966.2007446289067	268.5975952148439	217.6173553466798	1396.325561523438	51.86281204223636	237.1461334228517	1079.825317382813	58.91870880126956	214.432830810547	1121.5576171875	-39.43898391723634	284.5360717773439	906.7099609375005	-116.800392150879	240.1375885009767	869.0267944335942	-58.08452987670901	213.6602172851564	1383.112060546875	419.1891784667971	236.3201293945314	1063.010986328125	412.914978027344	215.3865814208986	1094.946166992188	519.9724731445315	245.8322143554689	848.4367675781255	519.370056152344	284.5853881835939	880.161254882813	586.752624511719	195.3851776123048	701.0354614257815	54.86309051513675	269.0617065429689	700.3195800781252	39.73080825805665	193.6364593505861	596.9682617187502	61.19961166381839	256.0991210937501	611.7541503906252	42.60983276367189	258.1404418945314	480.2688293457034	175.7689514160157	219.5854949951173	501.9821472167971	60.02252960205081	154.0231475830079	308.8933715820314	45.51344299316408	234.614227294922	296.957489013672	46.678524017334	157.1884155273438	247.6867980957032	46.77520751953126	217.8134918212892	219.6584472656251	48.52724456787112	201.5744018554689	113.8562850952149	139.6584625244141	182.4955139160157	100.8171463012696	49.90776062011722	117.1574172973633	79.62602233886722	101.3073348999024	111.7368316650391	48.87454605102542	97.52888488769537	144.2413024902344	49.23758316040042	138.7011260986329	132.8272552490235	44.68333053588869	56.75114059448245	243.6971282958986	88.49684906005862	138.4334259033204	277.3553161621095	109.9682693481446	88.79799652099612	221.1192474365236	84.91069793701175	33.56425857543947	328.3574829101564	62.388542175293	119.5213470458985	335.902069091797	74.96183013916018	86.22837066650393	315.940643310547	59.20564270019534	21.67974662780762	374.394012451172	68.26924896240237	80.74660491943362	174.2586517333985	710.7940063476565	390.3167724609377	243.6719970703126	708.4998168945315	418.8947753906252	181.8291931152344	624.8374633789065	405.5783386230471	239.9103393554689	603.1184082031252	419.8383483886721	246.9490814208986	484.3157348632815	292.2010803222657	217.7711639404298	493.7022399902346	407.6960754394534	141.9724731445313	271.5513916015626	407.3738708496096	204.6232299804689	286.7211303710939	423.4626464843752	135.2640228271485	210.8583526611329	389.2321472167971	207.4688110351564	206.5925750732423	411.642517089844	202.3599548339845	121.3350830078126	317.3203125000001	175.0519256591797	109.3248138427735	402.3509826660159	120.3998031616212	83.74956512451175	349.6634216308595	113.2278137207032	47.52496337890626	352.4774780273439	159.8374786376954	39.54658508300783	305.4765930175782	141.9935302734376	47.10374450683595	396.4005126953127	241.9480590820314	87.98443603515628	312.3447570800782	280.1312255859376	108.6503982543946	363.1734619140626	224.990447998047	84.17044830322268	417.0740966796877	318.8610839843751	65.474723815918	325.2977905273439	328.6799926757814	77.65318298339847	369.4450988769532	294.623992919922	46.286190032959	433.255310058594	373.1359252929689	71.62952423095706	371.472381591797	
618	3.085	148.1362609863282	1411.03955078125	235.9504547119142	302.623504638672	1354.461181640625	232.1651000976564	105.1644363403321	1255.198974609375	236.557830810547	301.5811767578126	947.6956176757817	115.9295272827149	304.5467529296876	950.9293823242192	335.3746032714845	138.0590362548829	968.466186523438	187.0030517578126	136.7982330322266	966.2352905273442	268.6014709472657	217.5869903564454	1396.340209960938	51.86853790283206	237.2504882812501	1079.843139648438	58.92560195922854	214.4708404541017	1121.579711914063	-39.41979598999025	284.5643310546876	906.7245483398442	-116.8060531616212	240.1878356933595	869.0422363281255	-58.06628036499026	213.6784820556642	1383.120361328125	419.2058410644534	236.3752441406251	1063.03466796875	412.9139099121096	215.4746093750001	1094.9609375	519.9965820312502	245.8603973388673	848.4642944335942	519.3447875976565	284.6548461914064	880.1155395507817	586.7119140625002	195.4020538330079	701.0623779296877	54.84774398803714	269.0879211425782	700.3270263671877	39.74337005615236	193.6852111816407	596.9716796875002	61.23449325561526	256.1026611328126	611.787292480469	42.61517715454103	258.1153564453126	480.2812500000002	175.7575836181641	219.5945892333986	501.989196777344	60.04162597656253	154.0852355957032	308.8948974609376	45.58918380737306	234.6414031982423	296.9738159179689	46.67859649658205	157.175277709961	247.4620819091798	46.71970367431642	217.8100128173829	219.6811676025392	48.53471374511722	201.5782470703126	113.8550109863282	139.6558227539063	182.4853210449219	100.8451538085938	49.91569519042972	117.1546783447266	79.65020751953128	101.2978286743165	111.724105834961	48.89272308349612	97.52561187744146	144.2500152587891	49.25000381469729	138.7224578857422	132.8381652832032	44.69511795043947	56.77009963989261	243.7217102050782	88.48313903808597	138.3968200683594	277.412078857422	109.9958648681641	88.75771331787112	221.1293487548829	84.94058990478518	33.56941223144533	328.382049560547	62.41467666625979	119.5103912353516	335.9075927734376	74.96558380126956	86.24579620361331	315.9548950195314	59.1844177246094	21.70550155639649	374.3937072753907	68.28308868408206	80.73480987548831	174.2619171142579	710.8566894531252	390.290466308594	243.6818084716798	708.5274658203127	418.9305419921877	181.8254699707032	624.8652954101565	405.526550292969	239.8534088134767	603.0881958007815	419.8254089355471	246.9392242431642	484.3241882324221	292.1954345703126	217.7693176269532	493.6963195800784	407.6892395019534	141.9687652587891	271.5337829589845	407.3741760253909	204.6165008544923	286.7336425781251	423.4703674316409	135.2631988525391	210.8670043945314	389.2440490722659	207.4554901123048	206.5410766601564	411.6626281738284	202.3903198242189	121.3409500122071	317.3522033691407	175.0536499023438	109.315788269043	402.3542785644534	120.3914337158204	83.75295257568362	349.673309326172	113.2181930541993	47.57047653198244	352.4773254394532	159.7853088378907	39.56754302978517	305.4625244140626	141.9973449707032	47.14537429809572	396.416931152344	241.6402130126954	87.97755432128909	312.4254760742189	280.1397399902345	108.6378707885743	363.1858520507814	224.9785308837892	84.16062164306643	417.0668640136721	318.8606872558595	65.48992919921878	325.2976379394532	328.6831054687501	77.65740966796878	369.4324951171876	294.645721435547	46.23290252685548	433.2551879882815	373.1553039550782	71.64085388183597	371.4807128906251	
619	3.09	148.124984741211	1411.052490234375	235.9883422851564	302.6087341308595	1354.49755859375	232.1833343505861	105.1820602416993	1255.192016601563	236.5989379882814	301.6307373046876	947.686157226563	115.9602203369141	304.8833312988282	950.9822387695317	335.5194091796876	138.0356750488282	968.5029907226567	187.0172729492188	136.8367156982422	966.2534790039067	268.6201171875001	217.5533447265626	1396.351196289063	51.88945007324222	237.301971435547	1079.86083984375	58.91977310180667	214.5009155273439	1121.59228515625	-39.39933395385744	284.6149902343751	906.7473754882817	-116.8001861572266	240.2669830322267	869.0593872070317	-58.05392074584964	213.7256011962892	1383.137939453125	419.2502441406252	236.4617004394532	1063.044677734375	412.9350891113284	215.5481262207032	1094.974853515625	520.0089111328127	245.9044189453126	848.4608764648442	519.3167724609377	284.7096252441407	880.1118164062505	586.688415527344	195.431365966797	701.0511474609377	54.89412689208987	269.121307373047	700.3131103515627	39.7456398010254	193.6670532226564	596.9253540039065	61.10225677490237	256.1844177246095	611.803405761719	42.68003845214845	258.1294250488282	480.2771606445315	175.7648010253907	219.6147918701173	502.0152282714846	60.04019165039065	154.0797729492188	308.903533935547	45.57179641723634	234.6470031738282	296.9831542968751	46.68027496337892	157.2067565917969	247.473602294922	46.74010086059572	217.8330535888673	219.6517639160157	48.52220153808597	201.5792083740236	113.8683624267579	139.6448822021485	182.4734497070313	100.8453826904297	49.90793609619143	117.1437301635743	79.66426086425784	101.2984313964844	111.7191772460938	48.90236663818362	97.54695129394537	144.2541503906251	49.26893997192386	138.7365112304688	132.8558502197266	44.70864868164064	56.78162002563479	243.7152862548829	88.49373626708987	138.3936309814454	277.3923950195314	109.9870529174805	88.77806091308597	221.1244201660157	84.9391784667969	33.56491470336915	328.3560485839845	62.40143585205081	119.5055084228516	335.9065856933595	74.98282623291018	86.2513122558594	315.9761352539064	59.20705413818362	21.71604156494141	374.3955993652345	68.27120208740237	80.75785827636722	174.2643280029297	710.7775878906252	390.334899902344	243.7280578613282	708.494323730469	418.9295043945315	181.8213500976563	624.8811035156252	405.5869445800784	239.9011535644532	603.1128540039065	419.8539123535159	246.9415893554689	484.3302917480471	292.2092590332032	217.7881927490236	493.7063293457034	407.6988220214846	141.9756469726563	271.575653076172	407.3476867675784	204.6541595458986	286.7584228515626	423.4816589355471	135.2176513671876	210.8863983154298	389.1817321777346	207.4752349853517	206.5593109130861	411.6557312011721	202.3821258544923	121.3460922241212	317.3414001464845	175.0628814697266	109.3329467773438	402.363464355469	120.3984680175782	83.77125549316409	349.6861267089845	113.2023620605469	47.59788894653322	352.4865112304689	159.8167266845704	39.59849548339845	305.4589233398439	141.9807434082032	47.15270996093751	396.4265441894534	241.9270172119142	88.03157806396487	312.3427734375001	280.1360778808595	108.658432006836	363.1748352050782	224.9965972900392	84.16757965087893	417.0751953125002	318.8621520996095	65.4999694824219	325.2917480468751	328.6862182617189	77.6608581542969	369.4387817382814	294.6476135253907	46.2533531188965	433.2568969726565	373.1500854492189	71.63883209228518	371.4761962890626	
620	3.095	148.1239471435547	1411.057373046875	236.0228424072267	302.5782775878907	1354.5283203125	232.1610870361329	105.2576904296876	1255.187866210938	236.6515502929689	301.6287841796876	947.6921997070317	115.9541702270508	304.8990783691407	951.0039062500005	335.5267639160157	138.0810089111329	968.5111694335942	187.0016174316407	136.8718261718751	966.2832641601567	268.6212158203126	217.5132751464845	1396.351928710938	51.89532470703128	237.1038360595704	1079.857177734375	58.83032608032229	214.5327453613282	1121.6044921875	-39.41197586059572	284.6618652343751	906.7764282226567	-116.8195114135743	240.3537902832032	869.0812377929692	-58.04096984863284	213.7540588378907	1383.146484375	419.2464904785159	236.5114746093751	1063.054321289063	412.9444885253909	215.6170806884767	1094.986694335938	520.0090942382815	246.0063476562501	848.4631958007817	519.3052978515627	284.7789001464845	880.1026000976567	586.6879882812502	195.4399719238282	701.0601806640627	54.86453247070315	269.1019897460939	700.330749511719	39.74312591552736	193.5872802734376	597.0603027343752	61.14237213134768	256.1299133300782	611.8214111328127	42.61398315429689	258.1577453613282	480.301940917969	175.7639617919922	219.6218414306642	502.0134582519534	60.05435180664065	154.0968933105469	308.9375000000001	45.56964111328126	234.6537628173829	296.9862365722657	46.67659759521486	157.192123413086	247.7358398437501	46.77615356445314	217.8311614990236	219.6907501220704	48.52899551391604	201.5833129882814	113.8595275878907	139.6363067626954	182.4898986816407	100.8475494384766	49.91638565063479	117.172218322754	79.66555786132815	101.2729568481446	111.7409820556641	48.90116882324222	97.53239440917974	144.226547241211	49.27517318725589	138.7071838378907	132.8493347167969	44.70954513549806	56.75061798095706	243.7141723632814	88.49436187744143	138.3956604003907	277.3672790527345	109.9749069213868	88.78296661376956	221.1443176269532	84.96558380126956	33.54479217529298	328.3311157226564	62.4099044799805	119.5057601928712	335.9097595214845	74.98310089111331	86.22600555419925	315.9548339843751	59.20978164672854	21.67969512939454	374.3926391601564	68.29079437255862	80.73789978027347	174.2598419189454	710.8494262695315	390.2972412109377	243.6791076660157	708.5159912109377	418.9305725097659	181.8100280761719	624.9707031250002	405.636413574219	239.8198699951173	603.0479125976565	419.8669128417971	246.9370880126954	484.313659667969	292.2131958007814	217.7944946289064	493.7262878417971	407.7129211425784	141.9811248779297	271.5567321777345	407.3934326171877	204.6571807861329	286.765106201172	423.4997558593752	135.266586303711	210.9051055908204	389.2174072265627	207.4300689697267	206.5903320312501	411.6363830566409	202.3745880126954	121.3587951660157	317.3311462402345	175.0447998046876	109.3478698730469	402.3450317382815	120.4094390869141	83.80319976806643	349.6566162109376	113.2207489013672	47.61751174926759	352.4757385253907	159.8256530761719	39.59446334838869	305.4636840820314	142.0116729736329	47.15295028686525	396.4228515625002	241.6480407714845	87.999137878418	312.4328002929689	280.1487731933595	108.6725769042969	363.1792297363282	224.9856262207032	84.1801681518555	417.0674438476565	318.8541564941407	65.50112152099612	325.2910156250001	328.6823120117189	77.67202758789065	369.4402770996095	294.6653137207032	46.25838851928712	433.2691650390627	373.1531982421876	71.64731597900393	371.4620971679689	
